<svg xmlns="http://www.w3.org/2000/svg" viewBox="0 0 128 128" role="img" aria-labelledby="title">
  <title id="title">Beyond keyhole atom</title>
  <defs>
    <radialGradient id="core" cx="50%" cy="42%" r="58%">
      <stop offset="0" stop-color="#fff"/>
      <stop offset=".28" stop-color="#d8c2ff"/>
      <stop offset=".72" stop-color="#7957ff"/>
      <stop offset="1" stop-color="#251650"/>
    </radialGradient>
    <linearGradient id="ring" x1="0" y1="0" x2="1" y2="1">
      <stop stop-color="#51db78"/>
      <stop offset=".5" stop-color="#ffbf32"/>
      <stop offset="1" stop-color="#715cff"/>
    </linearGradient>
  </defs>
  <g fill="none" stroke="url(#ring)" stroke-width="3" opacity=".86">
    <ellipse cx="64" cy="64" rx="56" ry="23" transform="rotate(18 64 64)"/>
    <ellipse cx="64" cy="64" rx="56" ry="23" transform="rotate(78 64 64)"/>
    <ellipse cx="64" cy="64" rx="56" ry="23" transform="rotate(138 64 64)"/>
  </g>
  <circle cx="64" cy="64" r="31" fill="url(#core)" stroke="#efe8ff" stroke-width="2"/>
  <path d="M64 42c-9.4 0-17 7.6-17 17 0 6.4 3.5 12 8.8 14.9L50 94h28l-5.8-20.1A17 17 0 0 0 64 42Z" fill="#0b0a14"/>
  <circle cx="64" cy="58" r="7" fill="#f7f4ff"/>
  <circle cx="18" cy="48" r="4" fill="#51db78"/>
  <circle cx="106" cy="39" r="4" fill="#ffbf32"/>
  <circle cx="92" cy="109" r="4" fill="#715cff"/>
</svg>
