<svg id="art" viewBox="0 0 1080 1350" xmlns="http://www.w3.org/2000/svg" aria-label="Generated tattoo stencil"><rect width="1080" height="1350" fill="#fff"/><g stroke="#111" stroke-width="4" fill="none"><circle cx="540" cy="650" r="390" fill="none"/><line x1="960" y1="650" x2="1020" y2="650"/><line x1="945.6888470414087" y1="758.7039989430587" x2="1003.6443966187528" y2="774.23314164921"/><line x1="903.7306695894642" y1="860" x2="955.6921938165306" y2="890"/><line x1="836.98484809835" y1="946.9848480983499" x2="879.4112549695428" y2="989.4112549695428"/><line x1="750" y1="1013.7306695894642" x2="780" y2="1065.6921938165306"/><line x1="648.7039989430587" y1="1055.6888470414087" x2="664.23314164921" y2="1113.6443966187528"/><line x1="540" y1="1070" x2="540" y2="1130"/><line x1="431.29600105694135" y1="1055.6888470414087" x2="415.76685835079013" y2="1113.6443966187528"/><line x1="330.0000000000001" y1="1013.7306695894642" x2="300.0000000000001" y2="1065.6921938165306"/><line x1="243.01515190165009" y1="946.98484809835" x2="200.58874503045723" y2="989.4112549695428"/><line x1="176.26933041053576" y1="860" x2="124.30780618346944" y2="890"/><line x1="134.31115295859138" y1="758.7039989430589" x2="76.35560338124725" y2="774.2331416492101"/><line x1="120" y1="650" x2="60" y2="650.0000000000001"/><line x1="134.31115295859132" y1="541.2960010569412" x2="76.35560338124719" y2="525.76685835079"/><line x1="176.2693304105357" y1="440.0000000000001" x2="124.30780618346938" y2="410.0000000000001"/><line x1="243.01515190164986" y1="353.0151519016502" x2="200.588745030457" y2="310.5887450304574"/><line x1="329.9999999999998" y1="286.2693304105359" x2="299.9999999999998" y2="234.30780618346955"/><line x1="431.29600105694135" y1="244.31115295859132" x2="415.76685835079013" y2="186.3556033812472"/><line x1="539.9999999999999" y1="230" x2="539.9999999999999" y2="170"/><line x1="648.7039989430585" y1="244.31115295859126" x2="664.2331416492098" y2="186.35560338124714"/><line x1="750" y1="286.2693304105358" x2="780" y2="234.3078061834695"/><line x1="836.9848480983499" y1="353.01515190165" x2="879.4112549695427" y2="310.5887450304571"/><line x1="903.7306695894641" y1="439.9999999999998" x2="955.6921938165304" y2="409.9999999999998"/><line x1="945.6888470414086" y1="541.2960010569409" x2="1003.6443966187527" y2="525.7668583507897"/><path d="M540 300 C455 305 395 370 390 475 L405 680 C415 790 475 875 540 920 C605 875 665 790 675 680 L690 475 C685 370 625 305 540 300 Z" fill="none" stroke-linecap="round" stroke-linejoin="round"/><path d="M420 430 L300 245 Q390 245 485 360 M660 430 L780 245 Q690 245 595 360" fill="none" stroke-linecap="round" stroke-linejoin="round"/><path d="M435 530 Q485 485 525 545 Q485 610 430 570 M645 530 Q595 485 555 545 Q595 610 650 570" fill="none" stroke-linecap="round" stroke-linejoin="round"/><path d="M540 550 L500 690 L540 735 L580 690 Z M465 780 Q540 825 615 780" fill="none" stroke-linecap="round" stroke-linejoin="round"/><path d="M390 475 Q540 410 690 475 M405 680 Q540 625 675 680 M440 855 Q540 800 640 855" fill="none" stroke-linecap="round" stroke-linejoin="round"/><path d="M355 930 Q540 820 725 930 L790 1110 M355 930 L290 1110 M405 930 Q540 1040 675 930" fill="none" stroke-linecap="round" stroke-linejoin="round"/><path d="M290 720 Q200 665 170 725 Q225 785 290 720" fill="none" stroke-linecap="round" stroke-linejoin="round"/><path d="M255 790 Q165 735 135 795 Q190 855 255 790" fill="none" stroke-linecap="round" stroke-linejoin="round"/><path d="M220 860 Q130 805 100 865 Q155 925 220 860" fill="none" stroke-linecap="round" stroke-linejoin="round"/><path d="M185 930 Q95 875 65 935 Q120 995 185 930" fill="none" stroke-linecap="round" stroke-linejoin="round"/><path d="M790 720 Q880 665 910 725 Q855 785 790 720" fill="none" stroke-linecap="round" stroke-linejoin="round"/><path d="M825 790 Q915 735 945 795 Q890 855 825 790" fill="none" stroke-linecap="round" stroke-linejoin="round"/><path d="M860 860 Q950 805 980 865 Q925 925 860 860" fill="none" stroke-linecap="round" stroke-linejoin="round"/><path d="M895 930 Q985 875 1015 935 Q960 995 895 930" fill="none" stroke-linecap="round" stroke-linejoin="round"/><path d="M406.8200284615159 430 Q540 409.8326498817187 718.1297070533037 430" fill="none" stroke-linecap="round" stroke-linejoin="round"/><path d="M369.5183381997049 448 Q540 429.5900694509037 726.834616009146 448" fill="none" stroke-linecap="round" stroke-linejoin="round"/><path d="M388.09806153178215 466 Q540 453.7060245361645 704.293573088944 466" fill="none" stroke-linecap="round" stroke-linejoin="round"/><path d="M418.63131226971745 484 Q540 471.34927030745894 666.9620620273054 484" fill="none" stroke-linecap="round" stroke-linejoin="round"/><path d="M385.18143828958273 502 Q540 458.0738024150487 728.2338011264801 502" fill="none" stroke-linecap="round" stroke-linejoin="round"/><path d="M406.70549212023616 520 Q540 496.068632339593 669.4455774314702 520" fill="none" stroke-linecap="round" stroke-linejoin="round"/><path d="M418.6595556885004 538 Q540 513.0453045463655 727.2855271026492 538" fill="none" stroke-linecap="round" stroke-linejoin="round"/><path d="M380.8859750069678 556 Q540 518.1898360084742 684.3871648423374 556" fill="none" stroke-linecap="round" stroke-linejoin="round"/><path d="M424.44462943822145 574 Q540 531.4942283600103 681.3676004856825 574" fill="none" stroke-linecap="round" stroke-linejoin="round"/><path d="M364.08386847004294 592 Q540 551.3971095257439 677.418783698231 592" fill="none" stroke-linecap="round" stroke-linejoin="round"/><path d="M419.82073575258255 610 Q540 590.8405023172963 662.3018896952271 610" fill="none" stroke-linecap="round" stroke-linejoin="round"/><path d="M371.83038579300046 628 Q540 601.2864202139899 665.7007328234613 628" fill="none" stroke-linecap="round" stroke-linejoin="round"/><path d="M391.1884097382426 646 Q540 617.014681434026 663.4316597878933 646" fill="none" stroke-linecap="round" stroke-linejoin="round"/><path d="M422.3938809148967 664 Q540 620.537946506869 704.1068005748093 664" fill="none" stroke-linecap="round" stroke-linejoin="round"/><path d="M411.11222229897976 682 Q540 654.8095956111792 685.1933192834258 682" fill="none" stroke-linecap="round" stroke-linejoin="round"/><path d="M368.6656821705401 700 Q540 687.1564057841897 729.0864169411361 700" fill="none" stroke-linecap="round" stroke-linejoin="round"/><path d="M407.04438243061304 718 Q540 699.0534548747819 707.6864580065012 718" fill="none" stroke-linecap="round" stroke-linejoin="round"/><path d="M360.39870923385024 736 Q540 713.0381491747685 680.8971669711173 736" fill="none" stroke-linecap="round" stroke-linejoin="round"/><path d="M355.73803678154945 754 Q540 710.9946703140158 688.5527228191495 754" fill="none" stroke-linecap="round" stroke-linejoin="round"/><path d="M419.83598263934255 772 Q540 761.0760828973725 707.4791499041021 772" fill="none" stroke-linecap="round" stroke-linejoin="round"/><path d="M410.87956335395575 790 Q540 768.6587666941341 688.6147031188011 790" fill="none" stroke-linecap="round" stroke-linejoin="round"/><path d="M387.59426025673747 808 Q540 782.6609366475604 670.1957933790982 808" fill="none" stroke-linecap="round" stroke-linejoin="round"/><path d="M371.8597812205553 826 Q540 785.9094424082432 713.7416229769588 826" fill="none" stroke-linecap="round" stroke-linejoin="round"/><path d="M373.8711600936949 844 Q540 799.7176729757339 667.9938570968807 844" fill="none" stroke-linecap="round" stroke-linejoin="round"/><path d="M393.86962313205004 862 Q540 827.2065746195149 654.2992617934942 862" fill="none" stroke-linecap="round" stroke-linejoin="round"/><line x1="840" y1="650" x2="930" y2="650"/><line x1="830.5749483385894" y1="724.6069661494564" x2="917.7474328401661" y2="746.9890559942934"/><line x1="802.8920040131591" y1="794.5261022305147" x2="881.7596052171068" y2="837.8839328996689"/><line x1="758.6905882264234" y1="855.3641317786066" x2="824.2977646943505" y2="916.9733713121885"/><line x1="700.7480384936989" y1="903.2983776506045" x2="748.9724500418087" y2="979.2878909457859"/><line x1="632.7050983124842" y1="935.316954888546" x2="660.5166278062295" y2="1020.9120413551099"/><line x1="558.8371558587941" y1="949.4080185284815" x2="564.4883026164323" y2="1039.2304240870258"/><line x1="483.7856056242826" y1="944.6861752186066" x2="466.9212873115674" y2="1033.0920277841885"/><line x1="412.2662125304782" y1="921.4481157398059" x2="373.9460762896216" y2="1002.8825504617475"/><line x1="348.7728030753931" y1="881.1539728327368" x2="291.404643998011" y2="950.5001646825579"/><line x1="297.2949016875158" y1="826.335575687742" x2="224.48337219377055" y2="879.2362483940645"/><line x1="261.0670542335246" y1="760.4373658054035" x2="177.38717050358196" y2="793.5685755470245"/><line x1="242.36558960565668" y1="687.5999700692913" x2="153.07526648735364" y2="698.8799610900787"/><line x1="242.36558960565662" y1="612.4000299307087" x2="153.07526648735364" y2="601.1200389099213"/><line x1="261.0670542335246" y1="539.5626341945966" x2="177.38717050358196" y2="506.43142445297565"/><line x1="297.2949016875157" y1="473.66442431225823" x2="224.48337219377038" y2="420.7637516059357"/><line x1="348.77280307539314" y1="418.8460271672632" x2="291.4046439980111" y2="349.49983531744215"/><line x1="412.26621253047836" y1="378.5518842601941" x2="373.94607628962183" y2="297.1174495382523"/><line x1="483.7856056242826" y1="355.3138247813934" x2="466.9212873115674" y2="266.9079722158114"/><line x1="558.8371558587938" y1="350.5919814715185" x2="564.488302616432" y2="260.7695759129741"/><line x1="632.7050983124842" y1="364.6830451114539" x2="660.5166278062294" y2="279.0879586448901"/><line x1="700.748038493699" y1="396.7016223493955" x2="748.9724500418088" y2="320.7121090542142"/><line x1="758.6905882264234" y1="444.6358682213933" x2="824.2977646943503" y2="383.0266286878113"/><line x1="802.892004013159" y1="505.4738977694852" x2="881.7596052171066" y2="462.1160671003307"/><line x1="830.5749483385894" y1="575.3930338505434" x2="917.7474328401661" y2="553.0109440057064"/></g><g fill="#111" font-family="Arial, sans-serif" text-anchor="middle"><text x="540" y="120" font-size="42" font-weight="900">CATHEDRAL SKULL</text><text x="540" y="1245" font-size="24" font-weight="700" letter-spacing="5">BEYOND TATTOO • SEED 937871</text></g></svg>